<svg width="51" height="55" viewBox="0 0 51 55" fill="none" xmlns="http://www.w3.org/2000/svg">
<path d="M50.7578 17.6328C50.7578 21.4766 49.5859 24.5 47.2422 26.7031C44.8984 28.9062 41.8047 30.1016 37.9609 30.2891C42.6016 38.0234 46.6562 45.9453 50.125 54.0547L29.5938 54.5469C29.2188 50.75 28.6562 47.2578 27.9062 44.0703C27.1562 40.8828 26.1016 37.5312 24.7422 34.0156C23.1953 34.1094 21.6484 34.2266 20.1016 34.3672C18.6016 34.5078 17.1016 34.625 15.6016 34.7188L15.9531 50.6797C13.2812 50.8203 10.6094 50.8906 7.9375 50.8906C6.57812 50.8906 5.24219 50.8672 3.92969 50.8203C2.66406 50.7734 1.375 50.6797 0.0625 50.5391C0.390625 46.2266 0.695312 41.9375 0.976562 37.6719C1.25781 33.3594 1.42188 29.0703 1.46875 24.8047C1.60938 17.2109 1.82031 9.61719 2.10156 2.02344C6.50781 1.78906 10.8906 1.53125 15.25 1.25C19.6562 0.96875 24.0625 0.828125 28.4688 0.828125C29.5938 0.828125 30.8125 0.851563 32.125 0.898438C33.4375 0.945312 34.75 1.08594 36.0625 1.32031C37.4219 1.50781 38.7109 1.78906 39.9297 2.16406C41.1953 2.53906 42.3203 3.03125 43.3047 3.64062C45.6953 5.14063 47.5234 7.15625 48.7891 9.6875C50.1016 12.1719 50.7578 14.8203 50.7578 17.6328ZM34.4453 16.5078C34.4453 16.1328 34.4219 15.6172 34.375 14.9609C34.375 14.3047 34.3281 13.6484 34.2344 12.9922C34.1406 12.2891 34 11.6562 33.8125 11.0938C33.625 10.4844 33.3672 10.0391 33.0391 9.75781C32.8047 9.57031 32.4062 9.42969 31.8438 9.33594C31.2812 9.24219 30.6719 9.17188 30.0156 9.125C29.4062 9.03125 28.7969 8.98438 28.1875 8.98438C27.625 8.9375 27.2266 8.91406 26.9922 8.91406C25.1172 8.91406 23.2656 9.00781 21.4375 9.19531C19.6562 9.38281 17.875 9.61719 16.0938 9.89844L17.9922 23.5391C19.0234 23.7734 20.1016 23.9375 21.2266 24.0312C22.3516 24.125 23.4531 24.1719 24.5312 24.1719C25 24.1719 25.6797 24.1484 26.5703 24.1016C27.5078 24.0547 28.4453 23.9609 29.3828 23.8203C30.3672 23.6797 31.2578 23.4922 32.0547 23.2578C32.8984 22.9766 33.4844 22.625 33.8125 22.2031C33.9531 22.0156 34.0703 21.6641 34.1641 21.1484C34.2578 20.5859 34.3047 20.0234 34.3047 19.4609C34.3516 18.8516 34.375 18.2656 34.375 17.7031C34.4219 17.1406 34.4453 16.7422 34.4453 16.5078Z" fill="#5B199C"/>
</svg>
